<?xml version="1.0" standalone="no"?>
<!DOCTYPE svg PUBLIC "-//W3C//DTD SVG 20010904//EN"
 "http://www.w3.org/TR/2001/REC-SVG-20010904/DTD/svg10.dtd">
<svg version="1.0" xmlns="http://www.w3.org/2000/svg"
 width="500.000000pt" height="500.000000pt" viewBox="0 0 500.000000 500.000000"
 preserveAspectRatio="xMidYMid meet">
<metadata>
Created by potrace 1.11, written by Peter Selinger 2001-2013
</metadata>
<g transform="translate(0.000000,500.000000) scale(0.100000,-0.100000)"
fill="#000000" stroke="none">
<path d="M2195 4984 c-924 -125 -1683 -717 -2018 -1574 -116 -297 -167 -575
-167 -910 0 -416 85 -775 271 -1140 339 -668 979 -1158 1709 -1309 331 -69
709 -69 1040 0 1011 209 1792 1035 1954 2065 22 143 22 625 0 768 -139 886
-731 1623 -1564 1949 -198 77 -376 122 -603 152 -146 19 -481 19 -622 -1z
m495 -1084 c206 -18 393 -76 551 -170 136 -80 297 -230 345 -320 26 -49 26
-161 0 -214 -46 -92 -139 -149 -246 -149 -89 0 -141 25 -237 114 -190 176
-374 250 -593 236 -122 -8 -203 -29 -315 -81 -223 -105 -383 -305 -452 -562
-36 -136 -38 -354 -5 -486 52 -211 148 -365 302 -489 74 -60 215 -129 310
-153 105 -27 251 -32 350 -12 157 32 260 88 395 215 103 98 165 125 265 118
146 -10 243 -111 243 -252 -1 -84 -27 -130 -137 -240 -107 -107 -187 -166
-311 -228 -215 -107 -454 -149 -714 -127 -368 32 -669 161 -906 391 -241 233
-372 520 -406 888 -39 425 112 846 405 1128 259 251 593 384 1011 402 17 0 82
-4 145 -9z"/>
</g>
</svg>
